#!OML:ASF H:\GeneralSubjects\Female5\Project 1\Capture day 1\Session 1\Female5.ASF
:FULLY-SPECIFIED
:DEGREES
250
root 24.3918 15.3249 3.59504 477.47 98.3902 468.727
lowerback 14.7426 8.18977 18.6316
upperback -15.4021 15.6984 -11.5976
thorax -17.9113 3.4648 -29.7366
lowerneck -12.6221 -5.55852 8.2641
upperneck 44.8293 -9.50042 3.47411
head 19.2529 -0.562287 -1.09627
rclavicle 1.04163e-013 2.22639e-014
rhumerus -50.8347 -9.52408 -86.7175
rradius 48.4317
rwrist -8.0602
rhand -23.6291 -19.5116
rfingers 7.12502
rthumb 2.83555 -49.4725
lclavicle 1.04163e-013 2.22639e-014
lhumerus -48.5806 -29.0119 61.2324
lradius 33.1829
lwrist 2.60386
lhand -22.0515 32.9694
lfingers 7.12502
lthumb 4.359 62.9045
rfemur 15.0146 8.914 39.4185
rtibia 7.72939
rfoot -15.1246 -12.1248
rtoes -26.8068
lfemur -32.0517 -25.5345 -7.8356
ltibia 3.9303
lfoot -58.719 7.69868
ltoes -27.3959
251
root 24.7952 15.3197 3.53146 477.178 97.0592 468.758
lowerback 14.5274 8.26702 17.3762
upperback -15.3372 15.4108 -11.9191
thorax -18.0823 3.47 -29.3882
lowerneck -12.5594 -5.58295 8.23418
upperneck 45.0504 -9.48446 3.49387
head 19.388 -0.516847 -1.06424
rclavicle 1.19271e-014 1.27222e-014
rhumerus -51.649 -9.8365 -87.3854
rradius 48.0975
rwrist -7.62086
rhand -23.3779 -19.5118
rfingers 7.12502
rthumb 3.07819 -49.4694
lclavicle 1.19271e-014 1.27222e-014
lhumerus -49.038 -29.3145 61.8333
lradius 33.6737
lwrist 3.75073
lhand -22.2965 31.7991
lfingers 7.12502
lthumb 4.12249 61.7389
rfemur 15.0401 7.07021 36.8906
rtibia 10.5291
rfoot -12.8249 -11.0061
rtoes -28.113
lfemur -30.8464 -21.0627 -12.9351
ltibia 6.19539
lfoot -51.2155 7.83709
ltoes -25.4742
252
root 25.1936 15.3189 3.47039 470.63 96.2424 463.008
lowerback 14.7783 8.12601 16.818
upperback -15.1593 15.0834 -11.9514
thorax -18.348 3.33506 -29.1589
lowerneck -12.429 -5.62403 8.23157
upperneck 45.3571 -9.44297 3.436
head 19.552 -0.455545 -1.06387
rclavicle 1.31198e-013 -1.04958e-013
rhumerus -52.6903 -10.2971 -87.9351
rradius 47.6264
rwrist -6.86904
rhand -23.3073 -19.5528
rfingers 7.12502
rthumb 3.14633 -49.5093
lclavicle 1.31198e-013 -1.04958e-013
lhumerus -49.4851 -29.4274 62.4497
lradius 33.9898
lwrist 4.49485
lhand -22.404 30.1288
lfingers 7.12502
lthumb 4.01868 60.0706
rfemur 15.0484 4.28304 34.8112
rtibia 14.0438
rfoot -9.59622 -9.8037
rtoes -27.9054
lfemur -30.7667 -15.7141 -17.303
ltibia 11.1194
lfoot -42.4349 10.5557
ltoes -25.5246
253
root 25.5746 15.3263 3.40923 460.669 95.6807 453.844
lowerback 15.1605 7.95584 16.5037
upperback -14.9608 14.7994 -11.9589
thorax -18.594 3.18611 -29.0732
lowerneck -12.2767 -5.62552 8.26674
upperneck 45.5724 -9.3711 3.46439
head 19.6594 -0.370427 -1.02204
rclavicle -1.4551e-013 -3.18055e-015
rhumerus -53.7166 -10.9932 -88.3623
rradius 47.0323
rwrist -5.99457
rhand -23.1511 -19.8804
rfingers 7.12502
rthumb 3.29716 -49.8347
lclavicle -1.4551e-013 -3.18055e-015
lhumerus -49.3736 -29.1619 62.7914
lradius 33.9172
lwrist 4.55146
lhand -22.5153 29.8884
lfingers 7.12502
lthumb 3.91113 59.8323
rfemur 14.513 1.17459 32.7063
rtibia 18.3082
rfoot -5.19461 -9.07787
rtoes -26.4813
lfemur -30.596 -13.2032 -20.0676
ltibia 15.3282
lfoot -37.054 11.4146
ltoes -27.0684
254
root 25.9364 15.347 3.3459 448.371 95.3017 442.278
lowerback 15.5278 7.79024 16.2692
upperback -14.7131 14.5265 -11.9936
thorax -18.7272 3.06102 -29.0397
lowerneck -12.2775 -5.60418 8.43723
upperneck 45.8813 -9.26027 3.33677
head 19.8518 -0.255153 -1.07582
rclavicle -1.82087e-013 7.63333e-014
rhumerus -54.4957 -11.745 -88.7274
rradius 46.2426
rwrist -5.19191
rhand -22.8532 -20.1197
rfingers 7.12502
rthumb 3.58486 -50.0693
lclavicle -1.82087e-013 7.63333e-014
lhumerus -49.4412 -29.5298 63.6471
lradius 34.1038
lwrist 5.29694
lhand -23.0843 29.9556
lfingers 7.12502
lthumb 3.36168 59.9088
rfemur 13.4931 -1.73312 30.5974
rtibia 23.0738
rfoot 0.195633 -9.71976
rtoes -24.3454
lfemur -29.8156 -12.5922 -22.1011
ltibia 18.147
lfoot -34.6407 9.21642
ltoes -25.7778
255
root 26.2836 15.3834 3.28268 433.783 95.2167 428.416
lowerback 15.9196 7.59196 16.1103
upperback -14.414 14.2213 -12.0346
thorax -18.807 2.92434 -29.0445
lowerneck -12.4018 -5.59974 8.61818
upperneck 46.2191 -9.15688 3.08129
head 20.0867 -0.157362 -1.20223
rclavicle 3.81667e-014 -7.31528e-014
rhumerus -55.1346 -12.5191 -89.0687
rradius 45.4324
rwrist -4.34981
rhand -22.2603 -20.3954
rfingers 7.12502
rthumb 4.15744 -50.3346
lclavicle 3.81667e-014 -7.31528e-014
lhumerus -49.1403 -29.7908 64.3746
lradius 33.9572
lwrist 5.53339
lhand -23.1428 28.1421
lfingers 7.12502
lthumb 3.30522 58.0962
rfemur 12.1838 -4.27674 28.6867
rtibia 28.1167
rfoot 5.47006 -11.611
rtoes -21.4733
lfemur -28.2423 -13.0201 -23.7843
ltibia 19.4069
lfoot -33.3375 8.78335
ltoes -25.5693
256
root 26.6178 15.4232 3.21757 419.421 95.3257 414.706
lowerback 16.2985 7.41759 15.9121
upperback -14.1173 13.9349 -12.1205
thorax -18.8676 2.80518 -29.083
lowerneck -12.3933 -5.62018 8.50095
upperneck 46.3742 -9.09517 3.0889
head 20.2034 -0.116249 -1.15496
rclavicle 1.23246e-013 -9.54166e-014
rhumerus -55.7552 -13.2725 -89.424
rradius 44.7905
rwrist -3.6275
rhand -21.3646 -20.7595
rfingers 7.12502
rthumb 5.02231 -50.68
lclavicle 1.23246e-013 -9.54166e-014
lhumerus -48.7362 -30.1374 65.0892
lradius 33.7017
lwrist 5.34651
lhand -22.4069 26.5559
lfingers 7.12502
lthumb 4.01581 56.4978
rfemur 10.6366 -6.34109 26.9044
rtibia 33.0627
rfoot 10.6536 -13.6974
rtoes -21.1024
lfemur -26.0421 -13.7683 -25.4705
ltibia 19.4279
lfoot -32.6257 9.11848
ltoes -26.5485
257
root 26.94 15.4575 3.15246 407.666 95.5342 403.547
lowerback 16.6473 7.30587 15.6598
upperback -13.8822 13.7253 -12.1807
thorax -18.959 2.72508 -29.0541
lowerneck -12.1565 -5.66096 8.2476
upperneck 46.5317 -8.98752 3.15312
head 20.2694 -0.0747439 -1.03807
rclavicle -7.15625e-015 -6.36111e-014
rhumerus -56.3173 -13.6201 -89.93
rradius 44.1841
rwrist -3.35983
rhand -20.6027 -20.789
rfingers 7.12502
rthumb 5.75795 -50.6908
lclavicle -7.15625e-015 -6.36111e-014
lhumerus -48.9106 -30.9675 66.2249
lradius 33.9525
lwrist 5.42583
lhand -21.8779 26.6521
lfingers 7.12502
lthumb 4.52668 56.5837
rfemur 8.89812 -7.84721 25.3959
rtibia 37.5653
rfoot 15.5523 -15.5892
rtoes -22.2922
lfemur -23.5388 -14.4599 -27.0528
ltibia 18.8194
lfoot -32.3927 8.7904
ltoes -26.5087
258
root 27.2483 15.4893 3.09443 399.174 95.8589 395.576
lowerback 17.0772 7.22193 15.4918
upperback -13.7843 13.619 -12.245
thorax -19.2128 2.62486 -29.178
lowerneck -11.7452 -5.64503 8.2802
upperneck 46.6042 -8.78992 3.1105
head 20.1952 0.0275554 -1.00381
rclavicle -1.04958e-013 3.49861e-014
rhumerus -56.8651 -13.6613 -90.7421
rradius 43.629
rwrist -3.40847
rhand -20.0286 -20.8861
rfingers 7.12502
rthumb 6.31225 -50.772
lclavicle -1.04958e-013 3.49861e-014
lhumerus -49.3788 -31.9956 67.2737
lradius 34.5373
lwrist 5.40547
lhand -21.4277 26.8165
lfingers 7.12502
lthumb 4.96136 56.7384
rfemur 6.92189 -8.91189 24.4129
rtibia 41.5621
rfoot 19.7339 -17.5563
rtoes -24.3459
lfemur -21.2291 -14.8539 -28.3194
ltibia 18.2707
lfoot -31.9124 8.67932
ltoes -27.5785
259
root 27.5419 15.5178 3.0434 393.373 96.2885 390.184
lowerback 17.4836 7.18007 15.4531
upperback -13.6944 13.6043 -12.2919
thorax -19.3786 2.57059 -29.3484
lowerneck -11.6517 -5.53262 8.52604
upperneck 46.7342 -8.48117 2.86196
head 20.2261 0.190724 -1.10052
rclavicle -1.11319e-014 -1.08139e-013
rhumerus -57.1613 -13.53 -91.6522
rradius 43.1696
rwrist -3.66686
rhand -19.6295 -21.1509
rfingers 7.12502
rthumb 6.69747 -51.025
lclavicle -1.11319e-014 -1.08139e-013
lhumerus -49.3504 -32.5931 67.8969
lradius 34.8908
lwrist 4.86995
lhand -20.9064 26.4953
lfingers 7.12502
lthumb 5.46474 56.4048
rfemur 4.60042 -9.66719 23.9822
rtibia 45.2812
rfoot 19.0261 -19.3307
rtoes -28.9277
lfemur -19.3737 -14.8424 -29.2887
ltibia 18.1308
lfoot -30.8797 9.4875
ltoes -31.497
260
root 27.8231 15.5452 2.99775 389.242 96.7723 386.333
lowerback 17.8503 7.17045 15.3635
upperback -13.647 13.6201 -12.2496
thorax -19.5834 2.53833 -29.3465
lowerneck -11.6068 -5.4052 8.53049
upperneck 46.8715 -8.15908 2.80282
head 20.3157 0.346727 -1.05775
rclavicle -5.64548e-014 8.90555e-014
rhumerus -57.3166 -13.0639 -92.5314
rradius 42.6797
rwrist -4.09302
rhand -19.3522 -21.1253
rfingers 7.12502
rthumb 6.96517 -50.9907
lclavicle -5.64548e-014 8.90555e-014
lhumerus -49.3477 -33.0245 68.5324
lradius 35.2838
lwrist 4.52863
lhand -20.9416 26.5233
lfingers 7.12502
lthumb 5.43072 56.4337
rfemur 1.87462 -10.2041 23.8928
rtibia 48.6406
rfoot 12.5362 -22.2209
rtoes -21.3949
lfemur -17.8619 -14.5323 -30.0341
ltibia 18.1942
lfoot -29.9471 9.80715
ltoes -34.3826
261
root 28.0931 15.5762 2.955 386.315 97.2993 383.466
lowerback 18.0757 7.19017 15.3016
upperback -13.6801 13.6801 -12.2261
thorax -19.7668 2.5247 -29.3764
lowerneck -11.5296 -5.34413 8.51151
upperneck 46.9116 -7.92073 2.66669
head 20.3127 0.436766 -1.07042
rclavicle -3.26007e-014 -6.36111e-015
rhumerus -57.4456 -12.5003 -93.413
rradius 42.2346
rwrist -4.15094
rhand -19.0336 -20.9502
rfingers 7.12502
rthumb 7.27276 -50.8052
lclavicle -3.26007e-014 -6.36111e-015
lhumerus -49.4849 -33.185 68.7772
lradius 36.3866
lwrist 4.45408
lhand -21.3407 26.2905
lfingers 7.12502
lthumb 5.04541 56.2104
rfemur -1.23852 -10.5403 24.0249
rtibia 51.1434
rfoot 10.3493 -21.3169
rtoes -26.7891
lfemur -16.6331 -14.2619 -30.5624
ltibia 18.201
lfoot -29.6941 8.71986
ltoes -33.8714
262
root 28.3583 15.6091 2.9162 384.067 97.9762 381.083
lowerback 18.0695 7.20427 15.3098
upperback -13.7497 13.7269 -12.2608
thorax -19.8248 2.52412 -29.4724
lowerneck -11.5642 -5.27877 8.51897
upperneck 46.9186 -7.74957 2.60823
head 20.3265 0.513305 -1.06504
rclavicle -6.04305e-014 1.04958e-013
rhumerus -57.5666 -11.974 -94.3163
rradius 41.9205
rwrist -3.89122
rhand -18.9702 -20.6288
rfingers 7.12502
rthumb 7.33388 -50.4817
lclavicle -6.04305e-014 1.04958e-013
lhumerus -49.3552 -33.1919 68.6501
lradius 37.2667
lwrist 4.87523
lhand -21.9997 25.1039
lfingers 7.12502
lthumb 4.4091 55.038
rfemur -4.55493 -10.7246 24.3787
rtibia 52.7908
rfoot 7.9869 -20.0237
rtoes -32.3412
lfemur -15.5952 -14.266 -30.9452
ltibia 18.1215
lfoot -29.7544 7.17321
ltoes -32.3034
263
root 28.622 15.6431 2.88345 381.191 98.7564 377.97
lowerback 17.8927 7.21916 15.1709
upperback -13.8068 13.7019 -12.3557
thorax -19.8131 2.53524 -29.4962
lowerneck -11.6546 -5.17532 8.68833
upperneck 46.9299 -7.55279 2.50486
head 20.3501 0.625767 -1.1065
rclavicle -9.78021e-014 -1.30403e-013
rhumerus -57.6938 -11.5926 -95.0567
rradius 41.645
rwrist -3.34474
rhand -18.9109 -20.2471
rfingers 7.12502
rthumb 7.39112 -50.098
lclavicle -9.78021e-014 -1.30403e-013
lhumerus -49.08 -32.8853 68.2388
lradius 38.0822
lwrist 5.5055
lhand -22.438 24.7838
lfingers 7.12502
lthumb 3.98584 54.7262
rfemur -7.9178 -10.7969 24.7176
rtibia 53.7907
rfoot 2.0729 -20.4954
rtoes -28.5952
lfemur -14.6232 -14.3476 -31.464
ltibia 17.9238
lfoot -28.6038 5.70811
ltoes -32.0812
264
root 28.883 15.6757 2.8589 378.524 99.6996 375.086
lowerback 17.6945 7.22336 14.925
upperback -13.8457 13.6239 -12.3944
thorax -19.8271 2.54351 -29.3421
lowerneck -11.773 -5.06913 8.86889
upperneck 46.9431 -7.30795 2.27237
head 20.3709 0.73939 -1.20855
rclavicle 1.59028e-014 -3.18055e-015
rhumerus -57.9318 -11.3091 -95.4669
rradius 41.3819
rwrist -2.39371
rhand -18.6838 -20.0252
rfingers 7.12502
rthumb 7.61034 -49.8683
lclavicle 1.59028e-014 -3.18055e-015
lhumerus -49.1129 -32.6666 68.0153
lradius 38.9042
lwrist 6.52347
lhand -22.8232 25.1995
lfingers 7.12502
lthumb 3.61384 55.1486
rfemur -11.1444 -10.7085 25.0625
rtibia 54.0205
rfoot -2.97478 -20.1198
rtoes -27.7574
lfemur -13.5257 -14.5174 -31.983
ltibia 17.4564
lfoot -27.6598 5.75141
ltoes -33.6048
